<svg height="200px" width="200px" version="1.1" id="Layer_1" xmlns="http://www.w3.org/2000/svg" xmlns:xlink="http://www.w3.org/1999/xlink" viewBox="0 0 512 512" xml:space="preserve" fill="#000000"><g id="SVGRepo_bgCarrier" stroke-width="0"></g><g id="SVGRepo_tracerCarrier" stroke-linecap="round" stroke-linejoin="round"></g><g id="SVGRepo_iconCarrier"> <path style="fill:#ffffff;" d="M492.575,261.054c-0.675-3.04-11.821-62.145-11.821-62.145l-64.848-54.039l-42.954-6.616 c-1.203-0.202-2.409-0.391-3.619-0.558l0,0l0,0l0,0c-0.864,0.122-1.73,0.238-2.594,0.379c-37.861,6.2-71.527,25.41-110.74,25.41 s-72.878-19.21-110.739-25.41C62.45,124.515-22.52,203.907,5.431,288.982c20.407,62.116,84.064,94.228,146.908,84.858 c52.306-7.998,67.834-38.392,103.662-38.392s51.355,30.394,103.662,38.392c1.732,0.259,3.464,0.484,5.197,0.677l0.085,0.008 l38.398-0.784l49.719-27.575l37.152-50.325C490.211,295.842,493.251,264.094,492.575,261.054z M200.079,281.635 c-3.544,21.46-138.552-0.84-135.008-22.3c3.544-21.46,36.641-33.864,73.922-27.707C176.274,237.785,203.623,260.175,200.079,281.635 z M311.922,281.635c-3.544-21.46,23.804-43.848,61.086-50.007c37.281-6.159,70.377,6.247,73.922,27.707 C450.474,280.795,315.466,303.095,311.922,281.635z"></path> <g style="opacity:0.1;"> <path d="M38.045,288.982c-23.966-72.948,35.092-141.712,104.621-151.287c-81.979-11.507-164.893,67.1-137.235,151.287 c19.835,60.376,80.533,92.401,141.628,85.543C98.111,368.98,54.321,338.524,38.045,288.982z"></path> </g> <path style="fill:#595A6B;" d="M369.334,137.695c69.53,9.574,128.588,78.339,104.623,151.287 c-16.277,49.543-60.066,79.998-109.013,85.543c61.095,6.858,121.792-25.167,141.628-85.543 C534.228,204.795,451.312,126.188,369.334,137.695z"></path> </g></svg>